<svg width="26" height="27" viewBox="0 0 26 27" fill="none" xmlns="http://www.w3.org/2000/svg">
<path d="M13 25.6618C10.6266 25.6618 8.30655 24.9476 6.33316 23.6097C4.35977 22.2717 2.8217 20.37 1.91345 18.145C1.0052 15.9201 0.76756 13.4718 1.23058 11.1098C1.6936 8.74778 2.83649 6.57814 4.51472 4.87523C6.19295 3.17232 8.33115 2.01263 10.6589 1.5428C12.9867 1.07296 15.3995 1.3141 17.5922 2.23571C19.7849 3.15731 21.6591 4.718 22.9776 6.72041C24.2962 8.72282 25 11.077 25 13.4853C24.996 16.7134 23.7304 19.8082 21.4809 22.0909C19.2313 24.3735 16.1814 25.6577 13 25.6618Z" stroke="#60A5FA" stroke-width="1.35" stroke-miterlimit="10"/>
<path d="M8.61794 7.6115H7.2124V9.03771H8.61794V7.6115Z" fill="#60A5FA" stroke="#60A5FA" stroke-width="0.68" stroke-miterlimit="10"/>
<path d="M12.1233 7.61148H10.7178V9.03769H12.1233V7.61148Z" fill="#60A5FA" stroke="#60A5FA" stroke-width="0.68" stroke-miterlimit="10"/>
<path d="M15.6289 7.61148H14.2234V9.03769H15.6289V7.61148Z" fill="#60A5FA" stroke="#60A5FA" stroke-width="0.68" stroke-miterlimit="10"/>
<path d="M8.61794 11.1698H7.2124V12.5961H8.61794V11.1698Z" fill="#60A5FA" stroke="#60A5FA" stroke-width="0.68" stroke-miterlimit="10"/>
<path d="M12.1233 11.1698H10.7178V12.5961H12.1233V11.1698Z" fill="#60A5FA" stroke="#60A5FA" stroke-width="0.68" stroke-miterlimit="10"/>
<path d="M8.61794 14.7275H7.2124V16.1537H8.61794V14.7275Z" fill="#60A5FA" stroke="#60A5FA" stroke-width="0.68" stroke-miterlimit="10"/>
<path d="M18.4323 8.67738C18.6243 8.67738 18.7799 8.51946 18.7799 8.32466C18.7799 8.12986 18.6243 7.97194 18.4323 7.97194C18.2403 7.97194 18.0847 8.12986 18.0847 8.32466C18.0847 8.51946 18.2403 8.67738 18.4323 8.67738Z" fill="#60A5FA" stroke="#60A5FA" stroke-width="0.68" stroke-miterlimit="10"/>
<path d="M18.4323 12.2357C18.6243 12.2357 18.7799 12.0778 18.7799 11.883C18.7799 11.6882 18.6243 11.5303 18.4323 11.5303C18.2403 11.5303 18.0847 11.6882 18.0847 11.883C18.0847 12.0778 18.2403 12.2357 18.4323 12.2357Z" fill="#60A5FA" stroke="#60A5FA" stroke-width="0.68" stroke-miterlimit="10"/>
<path d="M18.4323 15.7934C18.6243 15.7934 18.7799 15.6355 18.7799 15.4407C18.7799 15.2459 18.6243 15.088 18.4323 15.088C18.2403 15.088 18.0847 15.2459 18.0847 15.4407C18.0847 15.6355 18.2403 15.7934 18.4323 15.7934Z" fill="#60A5FA" stroke="#60A5FA" stroke-width="0.68" stroke-miterlimit="10"/>
<path d="M18.4323 19.3511C18.6243 19.3511 18.7799 19.1932 18.7799 18.9984C18.7799 18.8036 18.6243 18.6457 18.4323 18.6457C18.2403 18.6457 18.0847 18.8036 18.0847 18.9984C18.0847 19.1932 18.2403 19.3511 18.4323 19.3511Z" fill="#60A5FA" stroke="#60A5FA" stroke-width="0.68" stroke-miterlimit="10"/>
<path d="M14.9282 12.2357C15.1202 12.2357 15.2758 12.0778 15.2758 11.883C15.2758 11.6882 15.1202 11.5303 14.9282 11.5303C14.7362 11.5303 14.5806 11.6882 14.5806 11.883C14.5806 12.0778 14.7362 12.2357 14.9282 12.2357Z" fill="#60A5FA" stroke="#60A5FA" stroke-width="0.68" stroke-miterlimit="10"/>
<path d="M14.9282 15.7934C15.1202 15.7934 15.2758 15.6355 15.2758 15.4407C15.2758 15.2459 15.1202 15.088 14.9282 15.088C14.7362 15.088 14.5806 15.2459 14.5806 15.4407C14.5806 15.6355 14.7362 15.7934 14.9282 15.7934Z" fill="#60A5FA" stroke="#60A5FA" stroke-width="0.68" stroke-miterlimit="10"/>
<path d="M14.9282 19.3511C15.1202 19.3511 15.2758 19.1932 15.2758 18.9984C15.2758 18.8036 15.1202 18.6457 14.9282 18.6457C14.7362 18.6457 14.5806 18.8036 14.5806 18.9984C14.5806 19.1932 14.7362 19.3511 14.9282 19.3511Z" fill="#60A5FA" stroke="#60A5FA" stroke-width="0.68" stroke-miterlimit="10"/>
<path d="M11.4213 15.7934C11.6133 15.7934 11.7689 15.6355 11.7689 15.4407C11.7689 15.2459 11.6133 15.088 11.4213 15.088C11.2294 15.088 11.0737 15.2459 11.0737 15.4407C11.0737 15.6355 11.2294 15.7934 11.4213 15.7934Z" fill="#60A5FA" stroke="#60A5FA" stroke-width="0.68" stroke-miterlimit="10"/>
<path d="M11.4213 19.3511C11.6133 19.3511 11.7689 19.1932 11.7689 18.9984C11.7689 18.8036 11.6133 18.6457 11.4213 18.6457C11.2294 18.6457 11.0737 18.8036 11.0737 18.9984C11.0737 19.1932 11.2294 19.3511 11.4213 19.3511Z" fill="#60A5FA" stroke="#60A5FA" stroke-width="0.68" stroke-miterlimit="10"/>
<path d="M7.9145 19.3511C8.10648 19.3511 8.26211 19.1932 8.26211 18.9984C8.26211 18.8036 8.10648 18.6457 7.9145 18.6457C7.72252 18.6457 7.56689 18.8036 7.56689 18.9984C7.56689 19.1932 7.72252 19.3511 7.9145 19.3511Z" fill="#60A5FA" stroke="#60A5FA" stroke-width="0.68" stroke-miterlimit="10"/>
</svg>
