<?xml version="1.0" encoding="UTF-8" standalone="no"?>
<!-- Created with Inkscape (http://www.inkscape.org/) -->

<svg
   width="183.35075mm"
   height="143.89565mm"
   viewBox="0 0 183.35075 143.89565"
   version="1.1"
   id="svg5"
   xmlns="http://www.w3.org/2000/svg"
   xmlns:svg="http://www.w3.org/2000/svg">
  <defs
     id="defs2" />
  <g
     id="layer1"
     transform="translate(-17.436917,-11.027134)">
    <path
       style="fill:#000000;stroke-width:0.264583"
       d="m 157.51459,154.77819 c -8.65066,-1.12247 -16.08089,-4.4616 -22.93074,-10.30504 -6.3392,-5.40782 -12.03521,-15.76359 -14.22193,-25.85654 -1.54691,-7.13987 -1.86416,-16.4855 -0.82754,-24.378022 2.66437,-20.28583 12.17332,-40.67193 24.86911,-53.3165 10.4298,-10.38772 29.64723,-22.30515 44.36543,-27.512621 5.30649,-1.877496 9.84874,-2.42197 10.95728,-1.313434 1.34421,1.344212 1.41716,3.498151 0.18787,5.547223 -1.09294,1.821801 -3.52651,3.873572 -8.40052,7.082562 -2.11005,1.38923 -5.56286,3.65926 -7.67292,5.04451 -4.24797,2.78879 -9.193,6.48432 -11.28237,8.43156 -1.2592,1.17356 -3.67644,3.82748 -7.66151,8.4117 -3.53234,4.06342 -6.24893,8.24639 -7.39333,11.38415 -0.62109,1.70293 -0.70181,2.25974 -0.6023,4.15471 0.14505,2.76226 1.09764,4.68684 3.46979,7.01027 2.44257,2.39241 4.64453,3.73772 12.09264,7.38812 9.5227,4.66718 12.13186,6.22865 16.56143,9.91129 3.3359,2.77339 5.82873,5.78506 7.37029,8.90429 2.83714,5.740712 3.70411,10.637002 3.71217,20.964882 0.006,7.09193 -0.19359,8.59944 -1.76499,13.36146 -1.77333,5.37393 -4.48926,9.69809 -8.81216,14.03027 -5.90093,5.91359 -13.22469,9.57648 -21.64862,10.82731 -2.49852,0.37099 -8.28394,0.49815 -10.36708,0.22785 z M 55.914589,154.24946 c -11.041197,-1.42656 -21.43706,-7.30539 -27.758727,-15.69748 -10.47737,-13.90881 -13.41203,-33.61589 -8.1933,-55.020292 3.25854,-13.3648 9.11977,-25.85468 17.134738,-36.51296 7.396068,-9.83526 22.455051,-21.14707 38.922784,-29.2375 9.166025,-4.503174 15.737195,-6.754094 19.717425,-6.754094 2.20739,0 2.99171,0.545481 3.47705,2.418244 0.27519,1.061874 0.25188,1.401131 -0.17266,2.512771 -1.00572,2.633459 -3.89029,5.051247 -12.91411,10.824349 -10.887141,6.96518 -15.244919,10.59065 -21.441188,17.83809 -6.770571,7.91917 -9.2349,12.31319 -9.279081,16.54509 -0.01929,1.84839 0.08275,2.33793 0.805109,3.86245 1.544632,3.25989 5.481902,6.47457 11.568367,9.44527 1.477121,0.72096 4.769271,2.33642 7.315885,3.58992 12.295238,6.05195 19.029158,12.63095 21.665778,21.16734 1.40128,4.536832 2.38804,14.031482 2.05791,19.801372 -1.03593,18.10565 -14.07893,32.1749 -32.454938,35.00855 -2.277393,0.35119 -8.40219,0.4736 -10.451042,0.20888 z"
       id="path890" />
  </g>
</svg>
